<?xml version="1.0" standalone="no"?>
<!DOCTYPE svg PUBLIC "-//W3C//DTD SVG 20010904//EN"
 "http://www.w3.org/TR/2001/REC-SVG-20010904/DTD/svg10.dtd">
<svg version="1.0" xmlns="http://www.w3.org/2000/svg"
 width="421.000000pt" height="421.000000pt" viewBox="0 0 421.000000 421.000000"
 preserveAspectRatio="xMidYMid meet">
<metadata>
Created by potrace 1.14, written by Peter Selinger 2001-2017
</metadata>
<g transform="translate(0.000000,421.000000) scale(0.100000,-0.100000)"
fill="#000000" stroke="none">
<path d="M1738 3629 c-21 -5 -77 -28 -125 -52 -49 -25 -106 -48 -128 -52 -54
-9 -160 -70 -186 -106 -11 -16 -38 -38 -59 -49 -39 -20 -60 -58 -60 -110 0
-18 -8 -31 -24 -39 -13 -7 -31 -27 -40 -44 -9 -18 -33 -57 -52 -87 -29 -46
-34 -61 -29 -90 7 -37 9 -98 6 -190 -1 -43 8 -353 18 -595 1 -16 5 -36 10 -44
13 -20 48 3 66 45 8 19 28 42 45 52 54 30 156 97 172 112 8 8 32 28 52 45 20
16 36 37 36 45 0 12 2 13 9 1 7 -11 10 -9 16 8 3 11 13 21 21 21 8 0 14 10 14
24 0 14 7 31 15 39 8 8 12 17 9 19 -2 3 4 11 13 19 16 13 17 12 4 -3 -11 -15
-11 -18 0 -18 9 0 10 -3 3 -8 -6 -4 -13 -15 -17 -24 -4 -12 -2 -15 9 -11 8 3
12 8 10 11 -3 3 -1 11 5 19 6 7 8 13 4 13 -4 0 -3 6 3 13 12 14 18 42 32 144
12 91 28 130 77 184 42 47 142 99 239 124 80 21 239 19 469 -5 105 -11 240
-20 300 -20 68 0 120 -5 135 -13 13 -7 41 -36 61 -64 l36 -52 6 54 c3 30 1 70
-4 88 -17 63 -85 151 -200 261 -119 113 -206 172 -300 204 -30 11 -75 30 -99
42 -80 41 -154 61 -236 65 -45 2 -105 11 -135 19 -57 17 -141 19 -201 5z"/>
<path d="M2076 2351 c-42 -3 -71 -11 -74 -18 -2 -9 8 -13 34 -13 46 0 42 -6
-10 -14 -74 -12 -126 -73 -126 -150 0 -40 32 -70 112 -106 l46 -20 33 30 c19
16 39 30 46 30 22 0 14 -27 -13 -49 -15 -12 -22 -21 -17 -21 12 0 57 48 72 77
27 52 5 143 -44 181 l-28 22 40 0 c57 0 114 -51 145 -130 12 -33 26 -60 30
-60 5 0 8 -8 9 -17 0 -11 5 -7 11 10 13 36 -11 103 -51 146 l-27 29 61 -5 c55
-4 58 -3 36 10 l-24 14 37 7 c37 7 48 29 20 40 -25 10 -241 15 -318 7z m247
-48 c-7 -2 -19 -2 -25 0 -7 3 -2 5 12 5 14 0 19 -2 13 -5z m-314 -72 c13 -24
-8 -55 -35 -49 -23 4 -30 33 -14 53 17 20 37 19 49 -4z"/>
<path d="M2802 2343 c-23 -3 -36 -11 -42 -27 -4 -13 -22 -29 -39 -36 -33 -13
-39 -32 -17 -52 11 -11 11 -19 0 -52 -8 -21 -14 -55 -14 -75 0 -35 2 -37 48
-48 45 -10 49 -9 84 18 38 30 55 23 36 -15 -7 -14 -7 -16 2 -11 19 11 40 70
40 110 0 43 -21 86 -55 113 l-25 20 23 6 c74 20 132 -21 158 -110 l14 -47 5
34 c4 23 -1 45 -13 66 -11 19 -15 38 -11 45 14 22 15 51 2 60 -13 8 -134 8
-196 1z m-71 -156 c-8 -8 -11 -7 -11 4 0 20 13 34 18 19 3 -7 -1 -17 -7 -23z"/>
<path d="M1890 2239 c-6 -11 -10 -25 -8 -30 2 -5 8 4 15 21 13 34 9 40 -7 9z"/>
<path d="M2714 1862 c-5 -5 -29 -14 -53 -21 -33 -9 -41 -15 -30 -22 28 -17 68
-10 85 16 17 26 16 42 -2 27z"/>
<path d="M2845 1770 c-3 -5 1 -10 9 -10 9 0 16 5 16 10 0 6 -4 10 -9 10 -6 0
-13 -4 -16 -10z"/>
<path d="M2315 1731 c21 -35 175 -70 308 -72 99 -1 165 17 196 54 11 15 7 14
-31 -3 -24 -10 -85 -25 -134 -31 -84 -11 -98 -10 -190 11 -54 12 -112 29 -128
37 -15 8 -25 10 -21 4z"/>
<path d="M1235 1711 c-22 -3 -35 -9 -30 -13 14 -9 105 3 105 13 0 10 -12 10
-75 0z"/>
<path d="M3040 1665 c0 -8 2 -15 4 -15 2 0 6 7 10 15 3 8 1 15 -4 15 -6 0 -10
-7 -10 -15z"/>
<path d="M2996 1584 c-10 -25 1 -29 14 -5 6 12 7 21 1 21 -5 0 -12 -7 -15 -16z"/>
<path d="M2944 1508 c-16 -23 -49 -60 -73 -82 -24 -23 -62 -60 -85 -83 -23
-24 -49 -43 -58 -43 -10 0 -18 -5 -18 -12 0 -6 -3 -9 -6 -6 -3 3 -33 -3 -67
-14 -84 -26 -94 -28 -152 -34 -82 -7 -168 -8 -200 0 -16 3 -39 8 -50 11 -62
14 -138 38 -181 57 -27 12 -52 21 -56 20 -3 -1 -12 5 -18 13 -7 8 -16 15 -21
15 -5 0 -56 23 -113 52 -76 37 -106 57 -109 72 -3 13 -5 8 -6 -12 0 -18 -7
-43 -13 -55 -12 -20 -13 -18 -19 28 -5 40 -6 31 -7 -44 -2 -89 -1 -93 16 -79
34 29 53 28 150 -8 325 -122 667 -144 843 -53 52 26 131 98 122 112 -3 5 -1 7
5 4 5 -4 35 21 64 55 67 77 102 128 90 128 -5 0 -22 -19 -38 -42z"/>
<path d="M1672 1045 c-14 -31 -71 -55 -131 -55 -65 0 -85 8 -103 37 l-16 26
-6 -30 c-9 -41 -36 -63 -93 -79 -27 -7 -38 -13 -25 -13 30 -1 91 25 118 50 19
18 23 18 50 4 65 -34 194 -4 214 51 13 34 7 42 -8 9z"/>
<path d="M870 1011 c-61 -7 -47 -21 21 -21 28 0 39 4 39 15 0 8 -1 14 -2 13
-2 -1 -28 -4 -58 -7z"/>
<path d="M1760 963 c-47 -73 -66 -82 -170 -77 -81 4 -120 -1 -255 -30 -92 -21
-43 -29 65 -12 61 10 123 14 179 10 79 -6 89 -4 120 17 30 22 110 134 100 143
-2 2 -20 -21 -39 -51z"/>
<path d="M1131 954 c-38 -27 -37 -29 8 -13 17 6 31 17 31 25 0 17 3 18 -39
-12z"/>
<path d="M1018 923 c12 -2 32 -2 45 0 12 2 2 4 -23 4 -25 0 -35 -2 -22 -4z"/>
</g>
</svg>
